<?xml version="1.0" encoding="utf-8"?>
<!-- Generator: Adobe Illustrator 18.1.1, SVG Export Plug-In . SVG Version: 6.00 Build 0)  -->
<svg version="1.1" id="Layer_1" xmlns="http://www.w3.org/2000/svg" xmlns:xlink="http://www.w3.org/1999/xlink" x="0px" y="0px"
	 viewBox="0 0 525 525" enable-background="new 0 0 525 525" xml:space="preserve">
<g opacity="0.25">
	<g>
		<path fill="#E7E7E7" d="M315.5,411.8l35.6,97.9l2.1-0.8L317.7,411C317,411.3,316.3,411.6,315.5,411.8z M310.3,413.5l32.1,99.1
			l2.2-0.7l-32.1-99.1C311.7,413.1,311,413.3,310.3,413.5z M299.7,416.5l25.1,101l2.2-0.5L301.8,416
			C301.1,416.2,300.4,416.4,299.7,416.5z M350.1,394.5l58.2,86.4l1.9-1.3l-58.2-86.4C351.3,393.7,350.7,394.1,350.1,394.5z
			 M320.7,409.9l39,96.6l2.1-0.8l-39-96.6C322.1,409.3,321.4,409.6,320.7,409.9z M340.6,400.3l52,90.3l2-1.1l-52-90.2
			C342,399.6,341.3,400,340.6,400.3z M294.3,417.7l21.6,101.9l2.2-0.5l-21.6-101.9C295.7,417.4,295,417.6,294.3,417.7z M345.4,397.5
			l55.2,88.4l1.9-1.2l-55.1-88.4C346.7,396.7,346,397.1,345.4,397.5z M330.8,405.4l45.6,93.7l2-1l-45.6-93.7
			C332.2,404.8,331.5,405.1,330.8,405.4z M335.8,403l48.8,92l2-1.1l-48.9-92C337.1,402.3,336.5,402.6,335.8,403z M325.8,407.7
			l42.3,95.2l2.1-0.9l-42.3-95.2C327.2,407.1,326.5,407.4,325.8,407.7z M305,415.1l28.7,100.1l2.2-0.6l-28.6-100.1
			C306.5,414.7,305.7,414.9,305,415.1z M250.3,420.4l-7.3,103.9l2.3,0.2l7.3-103.8C251.8,420.5,251,420.4,250.3,420.4z M288.8,418.7
			l18,102.6l2.2-0.4l-18-102.5C290.3,418.5,289.6,418.6,288.8,418.7z M244.7,419.9l-10.9,103.5l2.3,0.2L247,420.1
			C246.2,420,245.5,420,244.7,419.9z M239.3,419.1l-14.5,103.1l2.2,0.3l14.5-103.1C240.8,419.3,240,419.2,239.3,419.1z M233.8,418.2
			l-18.1,102.5l2.2,0.4L236,418.6C235.3,418.5,234.6,418.3,233.8,418.2z M252.1,524.8l2.3,0.1l3.7-104.1c-0.8,0-1.5,0-2.3-0.1
			L252.1,524.8z M283.4,419.6l14.4,103.1l2.2-0.3l-14.4-103.1C284.9,419.4,284.1,419.5,283.4,419.6z M277.9,420.2l10.8,103.5
			l2.3-0.2l-10.8-103.6C279.4,420,278.6,420.1,277.9,420.2z M266.8,420.8l3.6,104.1l2.3-0.1l-3.6-104
			C268.3,420.8,267.6,420.8,266.8,420.8z M272.3,420.6l7.2,103.9l2.3-0.2l-7.2-103.9C273.9,420.5,273.1,420.5,272.3,420.6z
			 M261.2,525l2.3,0l0-104.1c-0.8,0-1.5,0-2.3,0L261.2,525z M404.4,333.2l93.5,45.8l1-2l-93.6-45.8
			C405,331.8,404.7,332.5,404.4,333.2z M396.2,347.6l88.2,55.3l1.2-1.9l-88.2-55.3C397,346.3,396.6,347,396.2,347.6z M406.7,328.2
			l95.1,42.5l0.9-2.1l-95.1-42.5C407.4,326.8,407,327.5,406.7,328.2z M354.6,391.4l61.2,84.3l1.8-1.3l-61.2-84.3
			C355.8,390.5,355.2,391,354.6,391.4z M401.8,338.1l91.9,49l1.1-2l-91.9-49C402.5,336.7,402.1,337.4,401.8,338.1z M408.9,323.1
			l96.5,39.1l0.8-2.1L409.7,321C409.5,321.7,409.2,322.4,408.9,323.1z M410.9,318l97.8,35.7l0.8-2.1l-97.8-35.8
			C411.4,316.5,411.2,317.2,410.9,318z M415.9,302.1l101,25.3l0.5-2.2l-101.1-25.3C416.2,300.7,416.1,301.4,415.9,302.1z
			 M414.4,307.5l100.1,28.9l0.6-2.2L415,305.3C414.8,306,414.6,306.7,414.4,307.5z M412.8,312.7l99,32.3l0.7-2.2l-99-32.3
			C413.2,311.3,413,312,412.8,312.7z M399.1,342.9l90.1,52.2l1.1-2l-90.1-52.2C399.8,341.6,399.5,342.2,399.1,342.9z M367.6,381.1
			l69.6,77.5l1.7-1.5l-69.6-77.5C368.7,380.1,368.1,380.6,367.6,381.1z M371.7,377.4l72.3,75l1.6-1.6l-72.3-75
			C372.7,376.3,372.2,376.9,371.7,377.4z M375.6,373.5l74.9,72.4l1.6-1.6l-74.9-72.4C376.7,372.4,376.1,372.9,375.6,373.5z
			 M363.4,384.7l66.9,79.9l1.7-1.5l-66.9-79.9C364.5,383.7,363.9,384.2,363.4,384.7z M393.2,352.2l86.3,58.3l1.3-1.9l-86.3-58.3
			C394,350.9,393.6,351.6,393.2,352.2z M359,388.1l64.1,82.2l1.8-1.4l-64.1-82.1C360.3,387.2,359.6,387.7,359,388.1z M379.4,369.5
			l77.3,69.8l1.5-1.7l-77.3-69.8C380.4,368.4,379.9,368.9,379.4,369.5z M386.6,361.1l82,64.2l1.4-1.8l-82-64.2
			C387.5,359.9,387,360.5,386.6,361.1z M389.9,356.7l84.2,61.3l1.3-1.8l-84.2-61.3C390.8,355.5,390.4,356.1,389.9,356.7z
			 M383.1,365.4l79.7,67l1.5-1.7l-79.7-67C384,364.2,383.6,364.8,383.1,365.4z M111.5,310.1l-99,32l0.7,2.2l99-32
			C112,311.6,111.7,310.9,111.5,310.1z M109.9,304.8L9.8,333.4l0.6,2.2L110.5,307C110.3,306.3,110.1,305.6,109.9,304.8z
			 M108.5,299.5l-101,25l0.5,2.2l101-25C108.9,301,108.7,300.2,108.5,299.5z M113.2,315.4l-97.8,35.5l0.8,2.1l97.9-35.5
			C113.8,316.8,113.5,316.1,113.2,315.4z M107.3,294.1L5.5,315.6l0.5,2.2l101.9-21.5C107.6,295.6,107.5,294.8,107.3,294.1z
			 M115.2,320.6l-96.5,38.9l0.8,2.1l96.6-38.9C115.8,322,115.5,321.3,115.2,320.6z M122.1,335.7l-91.9,48.7l1.1,2l92-48.8
			C122.8,337,122.4,336.3,122.1,335.7z M417.4,295.7c-0.1,0.4-0.2,0.7-0.3,1.1L519,318.6l0.5-2.2l-101.8-21.8
			C417.6,294.9,417.5,295.3,417.4,295.7z M117.3,325.7l-95.2,42.2l0.9,2.1l95.1-42.2C117.9,327.1,117.6,326.4,117.3,325.7z
			 M119.6,330.7L26,376.2l1,2l93.6-45.5C120.3,332.1,120,331.4,119.6,330.7z M106.3,288.7L3.8,306.6l0.4,2.2l102.5-17.9
			C106.5,290.2,106.4,289.4,106.3,288.7z M105.1,244.6l-103.5-11l-0.2,2.3l103.5,11C105,246.1,105,245.3,105.1,244.6z M104.3,255.6
			L0.2,251.8l-0.1,2.3l104.1,3.8C104.2,257.1,104.2,256.4,104.3,255.6z M104.6,250.1L0.7,242.7l-0.2,2.3l103.9,7.4
			C104.5,251.6,104.5,250.8,104.6,250.1z M105.8,239.1L2.7,224.5l-0.3,2.2l103.1,14.6C105.6,240.6,105.7,239.9,105.8,239.1z
			 M106.8,233.7L4.2,215.4l-0.4,2.2l102.5,18.2C106.5,235.1,106.6,234.4,106.8,233.7z M104.4,272.2L0.6,279.3l0.2,2.3l103.9-7.1
			C104.5,273.7,104.5,272.9,104.4,272.2z M229.5,417.4c-0.4-0.1-0.7-0.2-1.1-0.3l-21.7,101.8l2.2,0.5l21.7-101.8
			C230.2,417.5,229.9,417.5,229.5,417.4z M105.5,283.2L2.4,297.5l0.3,2.2l103.1-14.3C105.7,284.7,105.6,283.9,105.5,283.2z
			 M104.1,261.1L0,261l0,2.3l104.1,0.2C104.1,262.6,104.1,261.9,104.1,261.1z M104.2,266.7L0.1,270.2l0.1,2.3l104-3.5
			C104.2,268.2,104.2,267.4,104.2,266.7z M104.8,277.7L1.3,288.4l0.2,2.3L105.1,280C105,279.2,104.9,278.5,104.8,277.7z M197,406.6
			l-42.4,95.1l2.1,0.9l42.4-95C198.3,407.3,197.7,407,197,406.6z M192,404.3l-45.7,93.5l2,1l45.7-93.5
			C193.3,404.9,192.6,404.6,192,404.3z M187.1,401.7l-48.9,91.9l2,1.1l48.9-91.9C188.4,402.4,187.7,402.1,187.1,401.7z M177.5,396.1
			l-55.2,88.2l1.9,1.2l55.2-88.2C178.8,396.9,178.2,396.5,177.5,396.1z M182.3,399l-52.1,90.1l2,1.1l52.1-90.1
			C183.6,399.8,182.9,399.4,182.3,399z M202.1,408.8L163,505.3l2.1,0.9l39-96.5C203.5,409.4,202.8,409.1,202.1,408.8z M223,415.8
			l-25.2,101l2.2,0.6l25.2-101C224.5,416.2,223.7,416,223,415.8z M217.7,414.3l-28.8,100.1l2.2,0.6L219.9,415
			C219.1,414.8,218.4,414.6,217.7,414.3z M207.2,410.9l-35.7,97.8l2.1,0.8l35.7-97.8C208.6,411.4,207.9,411.1,207.2,410.9z
			 M212.4,412.7l-32.2,99l2.2,0.7l32.2-99C213.8,413.2,213.1,412.9,212.4,412.7z M172.9,393.1l-58.2,86.2l1.9,1.3l58.3-86.2
			C174.2,393.9,173.5,393.5,172.9,393.1z M168.4,389.8L107.2,474l1.8,1.3l61.2-84.1C169.6,390.7,169,390.3,168.4,389.8z M159.7,383
			l-66.9,79.6l1.7,1.5l67-79.7C160.9,383.9,160.3,383.5,159.7,383z M164,386.5l-64.1,81.9l1.8,1.4l64.1-81.9
			C165.2,387.4,164.6,386.9,164,386.5z M151.6,375.5l-72.4,74.8l1.6,1.6l72.4-74.8C152.7,376.5,152.2,376,151.6,375.5z M155.6,379.3
			l-69.7,77.3l1.7,1.5l69.7-77.3C156.8,380.3,156.2,379.8,155.6,379.3z M420.6,252.8l103.9-7.1l-0.2-2.3l-103.9,7.1
			C420.5,251.3,420.5,252.1,420.6,252.8z M204.3,115.1l-39-96.6l-2.1,0.8l39,96.6C202.9,115.7,203.6,115.4,204.3,115.1z
			 M209.5,113.2l-35.6-97.9l-2.1,0.8l35.6,97.9C208,113.7,208.7,113.4,209.5,113.2z M220,109.9L191.3,9.8l-2.2,0.6l28.6,100.1
			C218.5,110.3,219.3,110.1,220,109.9z M214.7,111.5l-32.1-99.1l-2.2,0.7l32.1,99.1C213.3,111.9,214,111.7,214.7,111.5z
			 M199.2,117.3l-42.3-95.2l-2.1,0.9l42.3,95.2C197.8,117.9,198.5,117.6,199.2,117.3z M179.6,127.5l-55.2-88.4l-1.9,1.2l55.1,88.4
			C178.3,128.3,179,127.9,179.6,127.5z M225.3,108.5l-25.1-101L198,8L223.2,109C223.9,108.8,224.6,108.6,225.3,108.5z M194.2,119.6
			l-45.6-93.7l-2,1l45.6,93.7C192.8,120.2,193.5,119.9,194.2,119.6z M174.9,130.5L116.7,44l-1.9,1.3l58.2,86.4
			C173.7,131.3,174.3,130.9,174.9,130.5z M184.4,124.7l-52-90.3l-2,1.1l52,90.2C183,125.4,183.7,125,184.4,124.7z M189.2,122
			l-48.8-92l-2,1.1l48.9,92C187.9,122.7,188.5,122.4,189.2,122z M252.7,104.4L245.4,0.5l-2.3,0.2l7.2,103.9
			C251.1,104.5,251.9,104.5,252.7,104.4z M272.9,0.2l-2.3-0.1L267,104.2c0.8,0,1.5,0,2.3,0.1L272.9,0.2z M261.4,104.1
			c0.8,0,1.5,0,2.3,0l0-104.1l-2.3,0L261.4,104.1z M274.7,104.6l7.3-103.9l-2.3-0.2l-7.3,103.8C273.2,104.5,274,104.6,274.7,104.6z
			 M280.3,105.1L291.2,1.6l-2.3-0.2L278,104.9C278.8,105,279.5,105,280.3,105.1z M252.3,0.2l3.6,104c0.8,0,1.5,0,2.3,0L254.6,0.1
			L252.3,0.2z M236.2,106.3l-18-102.6l-2.2,0.4l18,102.5C234.7,106.5,235.4,106.4,236.2,106.3z M241.6,105.4L227.2,2.3L225,2.7
			l14.4,103.1C240.1,105.6,240.9,105.5,241.6,105.4z M230.7,107.3L209.1,5.4l-2.2,0.5l21.6,101.9C229.3,107.6,230,107.4,230.7,107.3
			z M170.4,133.6l-61.2-84.3l-1.8,1.3l61.2,84.3C169.2,134.5,169.8,134,170.4,133.6z M247.1,104.8L236.3,1.3l-2.3,0.2l10.8,103.6
			C245.6,105,246.4,104.9,247.1,104.8z M112.2,212.3l-99-32.3l-0.7,2.2l99,32.3C111.8,213.7,112,213,112.2,212.3z M418.2,291.3
			l102.6,18.2l0.4-2.2l-102.5-18.2C418.5,289.9,418.4,290.6,418.2,291.3z M116.1,201.9l-96.5-39.1l-0.8,2.1l96.5,39.1
			C115.5,203.3,115.8,202.6,116.1,201.9z M166,136.9l-64.1-82.2l-1.8,1.4l64.1,82.1C164.7,137.8,165.4,137.3,166,136.9z M114.1,207
			l-97.8-35.7l-0.8,2.1l97.8,35.8C113.6,208.5,113.8,207.8,114.1,207z M123.2,186.9l-91.9-49l-1.1,2l91.9,49
			C122.5,188.3,122.9,187.6,123.2,186.9z M110.6,217.5L10.5,188.7l-0.6,2.2L110,219.7C110.2,219,110.4,218.3,110.6,217.5z
			 M109.1,222.9l-101-25.3l-0.5,2.2l101.1,25.3C108.8,224.3,108.9,223.6,109.1,222.9z M107.6,229.3c0.1-0.4,0.2-0.7,0.3-1.1L6,206.4
			l-0.5,2.2l101.8,21.8C107.4,230.1,107.5,229.7,107.6,229.3z M125.9,182.1l-90.1-52.2l-1.1,2l90.1,52.2
			C125.2,183.4,125.6,182.8,125.9,182.1z M285.7,105.9L300.3,2.8L298,2.4l-14.5,103.1C284.2,105.7,285,105.8,285.7,105.9z
			 M120.6,191.8l-93.5-45.8l-1,2l93.6,45.8C120,193.2,120.3,192.5,120.6,191.8z M128.8,177.4l-88.2-55.3l-1.2,1.9l88.3,55.3
			C128,178.7,128.4,178,128.8,177.4z M145.6,155.5L68.3,85.7l-1.5,1.7l77.3,69.8C144.6,156.6,145.1,156.1,145.6,155.5z M153.3,147.6
			l-72.3-75l-1.6,1.6l72.3,75C152.3,148.7,152.8,148.1,153.3,147.6z M157.4,143.9L87.8,66.4l-1.7,1.5l69.6,77.5
			C156.3,144.9,156.9,144.4,157.4,143.9z M161.6,140.3L94.7,60.4L93,61.9l66.9,79.9C160.5,141.3,161.1,140.8,161.6,140.3z
			 M149.4,151.5L74.5,79.1L73,80.7l74.9,72.4C148.3,152.6,148.9,152,149.4,151.5z M131.8,172.8l-86.3-58.3l-1.3,1.9l86.3,58.3
			C131,174.1,131.4,173.4,131.8,172.8z M135.1,168.3L50.9,107l-1.3,1.8l84.2,61.3C134.2,169.5,134.6,168.9,135.1,168.3z
			 M141.9,159.6l-79.7-67l-1.5,1.7l79.7,67C141,160.8,141.4,160.2,141.9,159.6z M138.4,163.9l-82-64.2l-1.4,1.8l82,64.2
			C137.5,165.1,138,164.5,138.4,163.9z M118.3,196.8l-95.1-42.5l-0.9,2.1l95.1,42.5C117.6,198.2,118,197.5,118.3,196.8z
			 M409.8,204.4l96.5-38.9l-0.8-2.1L409,202.3C409.2,203,409.5,203.7,409.8,204.4z M411.8,209.6l97.8-35.5l-0.8-2.1L411,207.5
			C411.2,208.2,411.5,208.9,411.8,209.6z M415.1,220.2l100.1-28.6l-0.6-2.2L414.5,218C414.7,218.7,414.9,219.4,415.1,220.2z
			 M413.5,214.9l99-32l-0.7-2.2l-99,32C413,213.4,413.3,214.1,413.5,214.9z M407.7,199.3l95.2-42.2l-0.9-2.1l-95.1,42.2
			C407.1,197.9,407.4,198.6,407.7,199.3z M405.4,194.3l93.6-45.5l-1-2l-93.6,45.5C404.7,192.9,405,193.6,405.4,194.3z M394.5,175.1
			l86.4-58.1l-1.3-1.9l-86.4,58.1C393.6,173.8,394,174.4,394.5,175.1z M397.4,179.7l88.4-55.1l-1.2-1.9l-88.3,55.1
			C396.6,178.5,397,179.1,397.4,179.7z M400.2,184.5l90.2-51.9l-1.1-2l-90.2,51.9C399.5,183.2,399.9,183.8,400.2,184.5z
			 M416.5,225.5l101-25l-0.5-2.2l-101,25C416.1,224,416.3,224.8,416.5,225.5z M402.9,189.3l91.9-48.7l-1.1-2l-92,48.8
			C402.2,188,402.6,188.7,402.9,189.3z M420.2,247.3l103.5-10.7l-0.2-2.3L419.9,245C420,245.8,420.1,246.5,420.2,247.3z
			 M420.9,261.6c0,0.8,0,1.5,0,2.3L525,264l0-2.3L420.9,261.6z M420.7,269.4l104.1,3.8l0.1-2.3l-104.1-3.8
			C420.8,267.9,420.8,268.6,420.7,269.4z M420.4,274.9l103.9,7.4l0.2-2.3l-103.9-7.4C420.5,273.4,420.5,274.2,420.4,274.9z
			 M419.2,285.9l103.1,14.6l0.3-2.2l-103.1-14.6C419.4,284.4,419.3,285.1,419.2,285.9z M417.7,230.9l101.8-21.5l-0.5-2.2
			l-101.8,21.5C417.4,229.4,417.5,230.2,417.7,230.9z M419.9,280.4l103.5,11l0.2-2.3l-103.5-11C420,278.9,420,279.7,419.9,280.4z
			 M418.7,236.3l102.5-17.9l-0.4-2.2l-102.5,17.9C418.5,234.8,418.6,235.6,418.7,236.3z M419.5,241.8l103.1-14.3l-0.3-2.2
			l-103.1,14.3C419.3,240.3,419.4,241.1,419.5,241.8z M391.3,170.5l84.3-61.1l-1.3-1.8L390,168.7
			C390.4,169.3,390.9,169.9,391.3,170.5z M420.8,258.3l104.1-3.5l-0.1-2.3l-104,3.5C420.8,256.8,420.8,257.6,420.8,258.3z
			 M373.4,149.5l72.4-74.8l-1.6-1.6l-72.4,74.8C372.3,148.5,372.8,149,373.4,149.5z M328,118.4l42.4-95.1l-2.1-0.9l-42.4,95
			C326.7,117.7,327.3,118,328,118.4z M322.9,116.2L362,19.7l-2.1-0.9l-39,96.5C321.5,115.6,322.2,115.9,322.9,116.2z M337.9,123.3
			l48.9-91.9l-2-1.1l-48.9,91.9C336.6,122.6,337.3,122.9,337.9,123.3z M333,120.7l45.7-93.5l-2-1L331,119.7
			C331.7,120.1,332.4,120.4,333,120.7z M317.8,114.1l35.7-97.8l-2.1-0.8l-35.7,97.8C316.4,113.6,317.1,113.9,317.8,114.1z
			 M295.5,107.6c0.4,0.1,0.7,0.2,1.1,0.3L318.3,6.1l-2.2-0.5l-21.7,101.8C294.8,107.5,295.1,107.5,295.5,107.6z M342.7,126
			l52.1-90.1l-2-1.1l-52.1,90.1C341.4,125.2,342.1,125.6,342.7,126z M302,109.2l25.2-101L325,7.6l-25.2,101
			C300.5,108.8,301.3,109,302,109.2z M307.3,110.7l28.8-100.1l-2.2-0.6L305.1,110C305.9,110.2,306.6,110.4,307.3,110.7z
			 M312.6,112.3l32.2-99l-2.2-0.7l-32.2,99C311.2,111.8,311.9,112.1,312.6,112.3z M369.4,145.7l69.7-77.3l-1.7-1.5l-69.7,77.3
			C368.3,144.7,368.8,145.2,369.4,145.7z M347.5,128.9l55.2-88.2l-1.9-1.2l-55.2,88.2C346.2,128.1,346.8,128.5,347.5,128.9z
			 M291.2,106.8L309.3,4.3l-2.2-0.4L289,106.4C289.7,106.5,290.4,106.7,291.2,106.8z M381,157.5L458.4,88l-1.5-1.7l-77.4,69.6
			C380,156.4,380.5,157,381,157.5z M388,166.1l82.1-64l-1.4-1.8l-82.1,64C387.1,164.9,387.6,165.5,388,166.1z M384.6,161.8
			l79.8-66.8l-1.5-1.7L383.1,160C383.6,160.6,384.1,161.2,384.6,161.8z M377.3,153.5l74.9-72.2l-1.6-1.6l-74.9,72.2
			C376.2,152.4,376.7,152.9,377.3,153.5z M352.1,131.9l58.2-86.2l-1.9-1.3l-58.3,86.2C350.8,131.1,351.5,131.5,352.1,131.9z
			 M356.6,135.2L417.8,51l-1.8-1.3l-61.2,84.1C355.4,134.3,356,134.7,356.6,135.2z M361,138.5l64.1-81.9l-1.8-1.4l-64.1,81.9
			C359.8,137.6,360.4,138.1,361,138.5z M365.3,142l66.9-79.6l-1.7-1.5l-67,79.7C364.1,141.1,364.7,141.5,365.3,142z"/>
	</g>
</g>
</svg>
